<svg style="background:white" viewBox="0 0 500 550" xmlns="http://www.w3.org/2000/svg" preserveAspectRatio="xMidYMid meet"><text text-anchor="middle" font-family="Arial, Helvetica, sans-serif" font-size="30" alignment-baseline="hanging" x="50%" y="20">C Major - E Shape</text><svg y="113.4" x="100" width="300" overflow="visible" height="calc(100% - 134.4px)"><rect fill="none" width="100%" height="100%" stroke-width="2" stroke="black"></rect><line x1="0" x2="100%" y1="25%" y2="25%" stroke="black" stroke-width="2"></line><line x1="0" x2="100%" y1="50%" y2="50%" stroke="black" stroke-width="2"></line><line x1="0" x2="100%" y1="75%" y2="75%" stroke="black" stroke-width="2"></line><line x1="20%" x2="20%" y1="0" y2="100%" stroke="black" stroke-width="2"></line><line x1="40%" x2="40%" y1="0" y2="100%" stroke="black" stroke-width="2"></line><line x1="60%" x2="60%" y1="0" y2="100%" stroke="black" stroke-width="2"></line><line x1="80%" x2="80%" y1="0" y2="100%" stroke="black" stroke-width="2"></line><text text-anchor="middle" font-family="Arial, Helvetica, sans-serif" font-size="30" alignment-baseline="central" x="-60" y="12.5%">8fr</text><rect x="calc(0% - 24px)" y="calc(calc(25% - 12.5%) - 24px)" width="calc(100% + 48px" rx="24" ry="24" height="48" fill-opacity="0.5" fill="gray"></rect><svg x="0%" y="calc(25% - 12.5%)" overflow="visible"><circle r="24" fill="red"></circle><text text-anchor="middle" font-family="Arial, Helvetica, sans-serif" alignment-baseline="central" fill="white">1</text></svg><svg x="20%" y="calc(75% - 12.5%)" overflow="visible"><circle r="24" fill="black"></circle><text text-anchor="middle" font-family="Arial, Helvetica, sans-serif" alignment-baseline="central" fill="white">3</text></svg><svg x="40%" y="calc(75% - 12.5%)" overflow="visible"><circle r="24" fill="red"></circle><text text-anchor="middle" font-family="Arial, Helvetica, sans-serif" alignment-baseline="central" fill="white">4</text></svg><svg x="60%" y="calc(50% - 12.5%)" overflow="visible"><circle r="24" fill="black"></circle><text text-anchor="middle" font-family="Arial, Helvetica, sans-serif" alignment-baseline="central" fill="white">2</text></svg><svg x="80%" y="calc(25% - 12.5%)" overflow="visible"><circle r="24" fill="black"></circle><text text-anchor="middle" font-family="Arial, Helvetica, sans-serif" alignment-baseline="central" fill="white">1</text></svg><svg x="100%" y="calc(25% - 12.5%)" overflow="visible"><circle r="24" fill="red"></circle><text text-anchor="middle" font-family="Arial, Helvetica, sans-serif" alignment-baseline="central" fill="white">1</text></svg></svg></svg>