<svg style="background:white" viewBox="0 0 500 613" xmlns="http://www.w3.org/2000/svg" preserveAspectRatio="xMidYMid meet"><text text-anchor="middle" font-family="Arial, Helvetica, sans-serif" font-size="30" alignment-baseline="hanging" x="50%" y="20">C Major - G Shape</text><svg y="113" x="100" width="300" overflow="visible" height="calc(100% - 134px)"><rect fill="none" width="100%" height="100%" stroke-width="2" stroke="black"></rect><line x1="0" x2="100%" y1="20%" y2="20%" stroke="black" stroke-width="2"></line><line x1="0" x2="100%" y1="40%" y2="40%" stroke="black" stroke-width="2"></line><line x1="0" x2="100%" y1="60%" y2="60%" stroke="black" stroke-width="2"></line><line x1="0" x2="100%" y1="80%" y2="80%" stroke="black" stroke-width="2"></line><line x1="20%" x2="20%" y1="0" y2="100%" stroke="black" stroke-width="2"></line><line x1="40%" x2="40%" y1="0" y2="100%" stroke="black" stroke-width="2"></line><line x1="60%" x2="60%" y1="0" y2="100%" stroke="black" stroke-width="2"></line><line x1="80%" x2="80%" y1="0" y2="100%" stroke="black" stroke-width="2"></line><text text-anchor="middle" font-family="Arial, Helvetica, sans-serif" font-size="30" alignment-baseline="central" x="-50" y="10%">5fr</text><rect x="calc(40% - 20px)" y="calc(calc(20% - 10%) - 20px)" width="calc(60% + 40px" rx="20" ry="20" height="40" fill-opacity="0.5" fill="gray"></rect><svg x="100%" y="calc(80% - 10%)" overflow="visible"><circle r="20" fill="red"></circle><text text-anchor="middle" font-family="Arial, Helvetica, sans-serif" alignment-baseline="central" fill="white">4</text></svg><svg x="calc(0% - 19px)" y="-47.5"><line x1="0" y1="0" stroke="black" stroke-width="2" y2="38" x2="38"></line><line y1="0" x2="0" stroke="black" stroke-width="2" y2="38" x1="38"></line></svg><svg x="calc(20% - 19px)" y="-47.5"><line x1="0" y1="0" stroke="black" stroke-width="2" y2="38" x2="38"></line><line y1="0" x2="0" stroke="black" stroke-width="2" y2="38" x1="38"></line></svg><svg x="40%" y="calc(20% - 10%)" overflow="visible"><circle r="20" fill="black"></circle><text text-anchor="middle" font-family="Arial, Helvetica, sans-serif" alignment-baseline="central" fill="white">1</text></svg><svg x="60%" y="calc(20% - 10%)" overflow="visible"><circle r="20" fill="red"></circle><text text-anchor="middle" font-family="Arial, Helvetica, sans-serif" alignment-baseline="central" fill="white">1</text></svg><svg x="80%" y="calc(20% - 10%)" overflow="visible"><circle r="20" fill="black"></circle><text text-anchor="middle" font-family="Arial, Helvetica, sans-serif" alignment-baseline="central" fill="white">1</text></svg></svg></svg>