<svg viewBox="0 0 440 482" xmlns="http://www.w3.org/2000/svg" preserveAspectRatio="xMidYMid meet" style="background-color:#fff"><text dy="0.35em" text-anchor="middle" font-size="30" font-family="Arial, Helvetica, sans-serif" x="50%" y="20">F Major Bar Chord</text><svg width="260" height="390" overflow="visible" x="50%" y="50"><svg x="-130" overflow="visible"><rect fill="none" stroke="black" stroke-width="2" width="260" height="390"></rect><line x1="0" x2="260" y1="78" y2="78" stroke="black" stroke-width="2"></line><line x1="0" x2="260" y1="156" y2="156" stroke="black" stroke-width="2"></line><line x1="0" x2="260" y1="234" y2="234" stroke="black" stroke-width="2"></line><line x1="0" x2="260" y1="312" y2="312" stroke="black" stroke-width="2"></line><line x1="52" x2="52" y1="0" y2="390" stroke="black" stroke-width="2"></line><line x1="104" x2="104" y1="0" y2="390" stroke="black" stroke-width="2"></line><line x1="156" x2="156" y1="0" y2="390" stroke="black" stroke-width="2"></line><line x1="208" x2="208" y1="0" y2="390" stroke="black" stroke-width="2"></line>0<rect x="-18" y="21" width="296" stroke-width="2" rx="18" ry="18" height="36" fill-opacity="0.5" fill="gray"></rect><svg x="0" y="39" overflow="visible"><circle r="18" stroke-width="2" fill="red"></circle><text dy="0.35em" text-anchor="middle" font-size="18" font-family="Arial, Helvetica, sans-serif" fill="white">1</text></svg><svg x="208" y="39" overflow="visible"><circle r="18" stroke-width="2" fill="black"></circle><text dy="0.35em" text-anchor="middle" font-size="18" font-family="Arial, Helvetica, sans-serif" fill="white">1</text></svg><svg x="260" y="39" overflow="visible"><circle r="18" stroke-width="2" fill="red"></circle><text dy="0.35em" text-anchor="middle" font-size="18" font-family="Arial, Helvetica, sans-serif" fill="white">1</text></svg><svg x="52" y="195" overflow="visible"><circle r="18" stroke-width="2" fill="black"></circle><text dy="0.35em" text-anchor="middle" font-size="18" font-family="Arial, Helvetica, sans-serif" fill="white">3</text></svg><svg x="104" y="195" overflow="visible"><circle r="18" stroke-width="2" fill="red"></circle><text dy="0.35em" text-anchor="middle" font-size="18" font-family="Arial, Helvetica, sans-serif" fill="white">4</text></svg><svg x="156" y="117" overflow="visible"><circle r="18" stroke-width="2" fill="black"></circle><text dy="0.35em" text-anchor="middle" font-size="18" font-family="Arial, Helvetica, sans-serif" fill="white">2</text></svg></svg></svg><svg x="50%" overflow="visible" height="22" y="462"><text dy="0.35em" text-anchor="middle" font-size="22" font-family="Arial, Helvetica, sans-serif" fill="gray">created with www.chord.love</text></svg></svg>